Patient4_TMGait_0pt4_02_left_40_EMG.mot
version=1
nRows=23
nColumns=33
inDegrees=no
endheader
time	1LAddLong	2LGlutMax	3LGlutMed	4LIliopsoas	5LSemiMemb	6LBicFemLong	7LRecFem	8LVastMed	9LVastLat	10LGasMed	11LTibAnt	12lTibPost	13LPeroneusLong	14LSol	15LExtDigLong	16LFlexDigLong	17RAddLong	18RGlutMax	19RGlutMed	20RIliopsoas	21RSemiMemb	22RBicFemLong	23RRecFem	24RVastMed	25RVastLat	26RGasMed	27RTibAnt	28RTibPost	29RPeroneusLong	30RSol	31RExtDigLong	32RFlexDigLong
53.4	0.005646	-0.21896	-0.033875	-0.001526	-0.023499	-0.043335	-0.043793	-0.004272	-0.00412	-0.046844	-0.001068	-0.010529	0.037994	-0.04776	0.055389	0.019989	0.016022	0.14618	0.27191	-0.06958	-0.019989	-0.11597	0.30273	-0.26062	0.001221	0.001984	0.056152	-0.003967	0.49759	-0.028229	0.001221	-0.012054
53.401	-0.001831	-0.23743	0.041809	-0.001831	-0.018463	-0.03006	-0.020599	-0.006256	0.043182	-0.046539	-0.019379	-0.00351	0.033722	-0.073853	0.049286	0.01358	0.018768	0.063477	0.021667	-0.056763	-0.011139	-0.072784	0.2002	-0.18662	0.23621	-0.00946	0.16708	-0.00824	0.37048	0.006866	-0.002441	-0.008392
53.402	0.014038	-0.21759	-0.015717	0.01236	0.002899	-0.041656	-0.036163	-0.009003	0.074921	-0.065613	-0.023499	-0.003204	0.06546	-0.054932	0.030518	0.019531	0.010834	0.017242	-0.56961	-0.052185	-0.005188	-0.022278	0.089264	0.11551	0.19379	-0.012665	0.075836	-0.018158	0.63995	-0.04303	0.001678	-0.010376
53.403	0.006104	-0.18799	-0.022583	0.005493	0.030823	-0.035248	-0.027008	-0.012512	0.10162	-0.039673	-0.036774	-0.007019	0.053406	-0.097809	0.003662	0.018005	0.001526	-0.005035	-0.46066	-0.020752	-0.050201	0.066681	-0.11047	0.090027	0.10437	-0.003052	-0.012054	0.007629	0.052795	-0.12863	-0.000916	-0.003357
53.404	-0.002441	-0.2092	0.00946	0.004272	0.020905	0.003052	-0.023041	-0.001221	0.11856	-0.05188	0.001678	-0.00412	0.085754	-0.059814	0.091095	0.006714	-0.003357	0.029449	-0.11841	-0.006256	-0.10757	0.10315	-0.16464	0.064697	0.039063	-0.002441	-0.020905	-0.011749	-0.8696	-0.099945	-0.024872	-0.002136
53.405	0.00824	-0.14984	-0.053253	-0.002441	0.011597	-0.010681	-0.013428	-0.003357	0.11597	-0.036926	0.032654	0.002594	0.052795	-0.028534	0.041046	0.018158	0.003052	0.12375	0.34653	-0.006866	0.00824	0.047913	-0.063934	0.21439	0.10895	-0.019989	-0.18204	0.000763	-0.53894	0.15564	0	-0.005188
53.406	0.010376	-0.13168	-0.12131	0.005188	0.006409	-0.024109	-0.018005	-0.000153	0.12726	-0.004883	0.058289	-0.002289	0.034943	-0.039978	-0.004578	0.011139	-0.017853	0.11688	0.050507	0.035553	0.020752	-0.028687	-0.13275	0.34653	0.23727	-0.023499	-0.16174	0.001221	0.7048	0.097656	0.001068	-0.016174
53.407	0.015717	-0.12344	-0.16052	0.009918	0.002136	-0.016632	-0.019226	-0.044556	0.13702	0.008545	0.03952	-0.000153	0.037079	-0.023499	0.009918	0.010834	-0.026093	-0.047607	0.38483	0.040131	-0.001221	0.002747	-0.14664	0.26306	-0.025787	-0.014038	-0.029144	0.003662	-0.072174	-0.1532	0.000458	-0.017242
53.408	0.018921	-0.12619	-0.11444	0.010223	-0.00946	-0.034027	-0.011139	-0.041962	0.13672	0.032043	0.014343	-0.00412	0.048218	-0.07782	0.000305	-0.006561	-0.018005	-0.13641	1.0611	0.018005	-0.009766	0.00061	-0.043945	0.16083	-0.17212	-0.008698	0.094604	-0.004272	-0.85525	-0.4303	0.000916	-0.010681
53.409	0.017242	-0.12726	0.004883	0.000458	0.00885	-0.015106	0.01297	-0.037842	0.14389	0.028839	0.00885	-0.001984	0.029602	-0.16617	-0.017853	0.002594	-0.011597	-0.17822	1.2114	0.006104	-0.016327	0.025787	-0.005188	0.12161	-0.18204	-0.006714	0.081482	-0.076141	-0.45197	-0.31052	0	-0.014038
53.41	-0.003204	-0.11353	0.080261	0.014191	-0.011292	-0.043182	-0.011444	-0.02243	0.15656	-0.024414	0.025482	-0.005798	0.059052	-0.12344	-0.019073	0.01358	-0.007324	-0.16663	0.84747	0.005951	-0.014648	0.038757	0.26093	-0.074463	-0.19806	0.001984	0.0383	-0.017853	-1.0382	0.2298	0.00061	-0.012207
53.411	-0.000458	-0.11581	0.000153	0.003815	0.01358	-0.049133	-0.007477	-0.006714	0.16251	-0.024261	0.02243	-0.001068	0.032196	-0.079956	-0.013885	0.005035	-0.021667	-0.20523	-0.11444	0.050049	-0.007782	0.056305	0.15595	0.080109	-0.19287	0.001984	-0.057526	0.034637	-0.31738	0.52094	0	-0.010834
53.412	-0.00946	-0.085754	-0.079956	0.009613	-0.017548	-0.031433	-0.014191	0.00412	0.16602	-0.05249	0.029144	-0.008545	0.009308	-0.041809	-0.014801	0.016022	-0.015106	-0.16434	-0.27496	-0.013428	0.003967	0.13214	0.052032	0.11276	-0.2475	-0.004883	-0.15137	0.011597	0.78857	0.3566	0.000153	-0.012054
53.413	-0.004578	-0.051727	-0.13245	0.020142	-0.04837	-0.042419	0.010071	-0.000458	0.15488	-0.067291	0.021362	0.000305	0.00473	0.016327	0.00412	0.014801	0.007629	-0.033264	0.2211	-0.07782	-0.03891	0.12924	-0.19257	-0.16464	-0.12421	-0.002899	-0.010834	0.001373	0.64438	0.061188	0.000916	0.000458
53.414	0.000916	-0.053864	-0.098724	-0.003662	-0.063629	-0.036163	0.006256	-0.005188	0.1796	-0.03891	0.027466	-0.003662	0.003815	0.017548	-0.004425	0.007782	0.010529	0.028381	0.83084	-0.043793	-0.02533	0.085144	-0.28824	-0.097198	0.025787	-0.00061	0.21637	-0.007172	-0.20523	-0.15259	-0.002136	-0.001831
53.415	-0.008545	-0.059052	-0.056458	0.00824	-0.06073	-0.051727	0.000153	-0.002441	0.17792	-0.025024	-0.001984	-0.003662	0.020447	-0.064392	-0.01236	0.013123	0.026398	0.028229	0.9491	-0.018768	-0.031433	0.027161	-0.02533	0	0.14038	-0.001526	0.40726	-0.017548	-0.55893	-0.079956	0.002289	-0.00885
53.416	0.02182	-0.021057	-0.076141	0.019989	-0.037842	-0.08255	-0.006561	-0.007324	0.18143	0.011902	0.011139	-0.003357	0.019836	-0.094604	0.004272	0.007019	0.03479	0.14084	1.4774	0.023956	-0.052643	0.027771	-0.067596	-0.07843	0.21133	-0.001526	0.30716	0.005798	0.34744	-0.093079	0.001373	-0.002594
53.417	0.023651	-0.051422	-0.09552	0.007477	-0.079193	-0.063629	0.002441	-0.011749	0.18356	0.013428	0.005493	-0.004578	0.036926	-0.067444	0.010986	0.00412	0.024719	0.13519	1.1049	0.16113	-0.034027	0.048828	-0.10346	-0.10223	0.29526	0.00061	0.029602	0.012054	0.56625	-0.10346	0.010681	-0.001831
53.418	0.031586	0.002289	-0.092773	0.02243	0.019226	-0.062103	0.009155	-0.009155	0.18799	-0.007172	0.003204	-0.003357	0.024109	-0.047302	0.009003	-0.002289	0.007019	0.13092	0.074615	0.19608	-0.020142	0.055084	-0.031586	-0.11475	0.37277	0.004272	-0.43655	-0.006866	0.56198	-0.11673	-0.00061	-0.000763
53.419	0.012054	0.005493	0.000153	0.01297	0.068359	-0.052032	-0.00351	-0.006714	0.18326	-0.02533	0.006256	0.001831	0.073547	-0.056152	0.00473	0.00351	0.005646	0.005035	-0.1738	0.094147	-0.010071	0.099945	0.10086	-0.060425	0.30258	0.005493	-0.36819	-0.004425	0.4985	-0.19089	0.000458	0.000763
53.42	0.008698	-0.000153	0.04425	0.001831	0.049744	-0.041199	0.01236	0.000763	0.17792	-0.037689	0.005341	-0.005035	0.084991	-0.016785	-0.013428	0.006104	0.001068	-0.074158	-0.36392	0.003815	-0.001068	0.13306	0.03006	0.073395	0.22186	0.005493	0.46371	-0.010986	0.24643	-0.22705	-0.001221	0.00473
53.421	0.011749	0.011749	0.0354	0.003662	0.024414	-0.057678	-0.010376	-0.00351	0.17593	-0.035858	0.006256	-0.006866	0.058899	-0.065155	-0.016785	0.013733	-0.002899	-0.14114	-0.71747	0.002136	0.00473	0.13077	-0.25299	0.15045	-0.075378	-0.001526	0.63522	-0.009918	-0.17075	-0.14389	0.002441	-0.005493
53.422	0.011902	0.013733	0.02533	0.009155	0.014038	-0.042572	-0.013733	0.004425	0.16876	-0.032959	0.019531	-0.007172	0.042114	-0.041504	-0.005646	-0.007477	0.014954	-0.12878	-0.82977	0.021973	-0.045624	0.12131	-0.26367	0.085602	-0.62683	-0.001984	-0.22263	-0.006866	0.025177	-0.083923	0.001526	-0.005798
